<?xml version="1.0" encoding="UTF-8"?>
<svg id="Layer_2" data-name="Layer 2" xmlns="http://www.w3.org/2000/svg" viewBox="0 0 773.48 773.48">
  <defs>
    <style>
      .cls-1 {
        fill: #71068b;
      }
    </style>
  </defs>
  <g id="Layer_1-2" data-name="Layer 1">
    <g>
      <path class="cls-1" d="M743.08,236.2c-19.48-46.05-47.36-87.41-82.88-122.93-35.51-35.51-76.87-63.4-122.93-82.88C489.59,10.23,438.94,0,386.74,0s-102.85,10.23-150.54,30.4c-46.05,19.48-87.41,47.36-122.92,82.88-35.51,35.51-63.4,76.87-82.88,122.93C10.23,283.89,0,334.54,0,386.74s10.23,102.85,30.4,150.54c19.48,46.05,47.36,87.41,82.88,122.93,35.51,35.51,76.87,63.4,122.92,82.88,47.69,20.17,98.34,30.4,150.54,30.4s102.85-10.23,150.54-30.4c46.05-19.48,87.41-47.36,122.93-82.88,35.51-35.51,63.4-76.87,82.88-122.93,20.17-47.69,30.4-98.34,30.4-150.54s-10.23-102.85-30.4-150.54ZM386.74,745.99c-198.09,0-359.26-161.16-359.26-359.26S188.64,27.48,386.74,27.48s359.26,161.16,359.26,359.26-161.16,359.26-359.26,359.26Z"/>
      <path class="cls-1" d="M547.31,320.79l-160.58,160.58-160.58-160.58c-10.73-10.73-28.13-10.73-38.87,0-10.73,10.73-10.73,28.13,0,38.87l180.01,180.01c5.15,5.15,12.14,8.05,19.43,8.05s14.28-2.89,19.43-8.05l180.01-180.01c10.73-10.73,10.73-28.13,0-38.87-10.73-10.73-28.13-10.73-38.87,0Z"/>
    </g>
  </g>
</svg>