<?xml version="1.0" encoding="UTF-8"?>
<svg id="Layer_2" data-name="Layer 2" xmlns="http://www.w3.org/2000/svg" viewBox="0 0 746 745.99">
  <defs>
    <style>
      .cls-1 {
        fill: #71068b;
      }
    </style>
  </defs>
  <g id="Layer_1-2" data-name="Layer 1">
    <path class="cls-1" d="M373,0C167,0,0,167,0,373s167,373,373,373,373-167,373-373S579,0,373,0ZM572.44,345.92l-180.01,180.01c-5.37,5.37-12.4,8.05-19.43,8.05s-14.07-2.68-19.43-8.05l-180.01-180.01c-10.73-10.73-10.73-28.13,0-38.87,10.73-10.73,28.13-10.73,38.87,0l160.58,160.58,160.58-160.58c10.73-10.73,28.13-10.73,38.87,0,10.73,10.73,10.73,28.13,0,38.87Z"/>
  </g>
</svg>