<?xml version="1.0" encoding="UTF-8"?>
<svg id="Layer_2" data-name="Layer 2" xmlns="http://www.w3.org/2000/svg" viewBox="0 0 76.47 100">
  <defs>
    <style>
      .cls-1 {
        fill: #71068b;
      }
    </style>
  </defs>
  <g id="Design">
    <g id="Logo_3_Medium_Color" data-name="Logo 3 Medium Color">
      <path class="cls-1" d="M59.21,68.09c-.08.17-.19.33-.31.47-3.15,3.64-6.54,6.91-10.16,9.84-3.7,2.98-7.58,5.41-11.64,7.27-4.06,1.87-8.26,2.95-12.58,3.24-6.48.36-11.42-1.17-14.85-4.6-3.42-3.43-5.07-8.47-4.94-15.12.21-14.34,10.73-36.09,20.98-48.23,4.49-5.44,9.27-10.01,14.34-13.74.54-.39.85-1.01.85-1.67v-3.46c0-1.16-.94-2.1-2.1-2.1H2.1C.94,0,0,.94,0,2.1v95.81c0,1.16.94,2.1,2.1,2.1h72.28c1.16,0,2.1-.94,2.1-2.1v-29.94c0-1.16-.94-2.1-2.1-2.1h-12.77c-.8,0-1.53.45-1.88,1.17l-.52,1.05Z"/>
      <path class="cls-1" d="M11.85,66.45c-.52,6.15.43,10.84,2.87,14.1,2.44,3.25,6.25,4.79,11.44,4.59,4.45-.3,9.05-1.7,13.81-4.18,4.76-2.48,9.53-6.35,14.31-11.61l3.17-3.48h-14.45c-1.16,0-2.1-.94-2.1-2.1V11.78c-14.58,12.97-26.99,36.34-29.05,54.67Z"/>
    </g>
  </g>
</svg>